<?xml version="1.0" encoding="utf-8"?>
<!-- Generator: Adobe Illustrator 25.1.0, SVG Export Plug-In . SVG Version: 6.00 Build 0)  -->
<svg version="1.1" id="Camada_1" xmlns="http://www.w3.org/2000/svg" xmlns:xlink="http://www.w3.org/1999/xlink" x="0px" y="0px"
	 viewBox="0 0 285 39" style="enable-background:#fff" xml:space="preserve">
<style type="text/css">
	.st0{fill: rgb(6,22,74);}
	.st1{font-family:'PlayfairDisplay-Bold';}
	.st2{font-size:18px;}
</style>
<text transform="matrix(1 0 0 1 6.7409 23.4704)" class="st0 st1 st2">Verifique se o som está ligado</text>
<g>
	<g>
		<path class="st0" d="M280.09,20.3c-0.07,0.51-0.12,1.02-0.22,1.52c-0.48,2.58-1.66,4.8-3.52,6.65c-0.36,0.36-0.91,0.35-1.27,0.01
			c-0.36-0.34-0.37-0.91-0.01-1.29c0.94-0.97,1.71-2.05,2.27-3.28c1.77-3.95,0.98-8.66-1.99-11.81c-0.09-0.1-0.19-0.19-0.28-0.29
			c-0.35-0.39-0.35-0.94,0.01-1.29c0.37-0.35,0.91-0.35,1.29,0.03c0.75,0.74,1.39,1.56,1.93,2.46c1.01,1.69,1.6,3.52,1.74,5.49
			c0.01,0.07,0.03,0.14,0.05,0.2C280.09,19.23,280.09,19.77,280.09,20.3z"/>
		<path class="st0" d="M269.2,19.52c0,3.88,0,7.76,0,11.64c0,0.56-0.24,0.9-0.7,1.02c-0.34,0.08-0.62-0.05-0.88-0.26
			c-1.63-1.31-3.26-2.61-4.89-3.92c-1.19-0.95-2.38-1.9-3.57-2.86c-0.17-0.14-0.35-0.21-0.58-0.2c-1.25,0.01-2.5,0.01-3.75,0
			c-1.22,0-1.96-0.75-1.96-1.97c0-2.31,0-4.62,0-6.94c0-1.22,0.74-1.97,1.97-1.97c1.27,0,2.53,0,3.8-0.01
			c0.15,0,0.33-0.06,0.45-0.16c2.83-2.25,5.65-4.51,8.47-6.77c0.29-0.23,0.58-0.41,0.97-0.29c0.39,0.11,0.65,0.43,0.67,0.83
			c0.01,0.1,0,0.19,0,0.29C269.2,11.81,269.2,15.66,269.2,19.52z"/>
		<path class="st0" d="M276.47,19.64c-0.04,2.32-0.88,4.45-2.62,6.22c-0.33,0.33-0.74,0.41-1.11,0.21
			c-0.36-0.19-0.56-0.58-0.45-0.98c0.05-0.19,0.18-0.39,0.32-0.54c1.1-1.15,1.78-2.5,1.98-4.08c0.28-2.28-0.35-4.27-1.92-5.96
			c-0.15-0.16-0.3-0.36-0.37-0.57c-0.13-0.39,0.07-0.8,0.42-1c0.36-0.21,0.8-0.15,1.12,0.17c0.74,0.74,1.34,1.58,1.78,2.53
			C276.19,16.86,276.46,18.15,276.47,19.64z"/>
	</g>
</g>
</svg>
